<svg xmlns="http://www.w3.org/2000/svg" viewBox="0 0 339.46 400.15"><g transform="translate(-201.21 -16.158)"><g transform="matrix(-1.4034 0 0 1.4034 884.58 -240.72)"><rect transform="rotate(30.6234)" ry="2.2311" height="23.757" width="14.475" y="149.06" x="431.12" stroke-linejoin="round" stroke="#484848" stroke-linecap="round" stroke-width="2.312" fill="#a4a4a4"/><path d="M304.15 349.26l-.48141 1.2224-9.9608 23.078 2.0911 1.386 13.432-23.71-3.9499-1.5307-1.1307-.44565z" opacity=".63" fill="#6b6b6b"/><path d="M279.17 375.6l.67137-1.1292 12.166-20.463 2.352-.74264-10.515 25.14-3.6293-2.1846-1.0449-.62083z" opacity=".63" fill="#fff"/><rect ry="2.2311" transform="rotate(30.6234)" height="23.757" width="14.475" y="149.06" x="431.12" stroke-linejoin="round" stroke="#484848" stroke-linecap="round" stroke-width="2.312" fill="none"/><rect transform="rotate(30.6234)" ry="2.1266" height="25.503" width="18.77" y="130.95" x="429.05" stroke-linejoin="round" stroke="#484848" stroke-linecap="round" stroke-width="2" fill="#a4a4a4"/><path d="M290.84 352.88l.67137-1.1292 12.166-20.463 2.352-.74264-10.515 25.14-3.6293-2.1846-1.0449-.62083z" opacity=".63" fill="#fff"/><path d="M313.52 336.7l-.48141 1.2224-9.9608 23.078 2.0911 1.386 13.432-23.71-3.9499-1.5307-1.1307-.44565z" opacity=".63" fill="#6b6b6b"/><rect ry="2.1266" transform="rotate(30.6234)" height="25.503" width="18.77" y="130.95" x="429.05" stroke-linejoin="round" stroke="#484848" stroke-linecap="round" stroke-width="2" fill="none"/><path d="M315.5 337.99c0 9.8721-6.8277 17.875-15.25 17.875S285 347.8621 285 337.99s6.8277-17.875 15.25-17.875 15.25 8.0029 15.25 17.875z" transform="matrix(1.0954 0 0 .93453 -9.6756 11.286)" stroke-linejoin="round" stroke="#484848" stroke-linecap="round" stroke-width="2" fill="#a4a4a4"/><path d="M262.61 380.88c-.91165-.74629-2.2441-.61341-2.9904.29825l-8.9473 10.93c-5.6247 6.8172-6.0815 13.602-1.4827 20.675l12.847-15.693c.37315-.45583.89285-.71083 1.4338-.76479.54091-.054 1.1008.0934 1.5566.46654l5.1989 4.2559c.45583.37315.71084.89286.7648 1.4338.054.54091-.0934 1.1008-.46655 1.5566l-12.768 15.597c7.2047 2.6499 14.419.67272 19.467-5.7916l8.9473-10.93c.7463-.91165.6134-2.2441-.29825-2.9904l-1.0206-11.013-11.631-9.5214-10.61 1.4913z" stroke-linejoin="round" stroke="#484848" stroke-linecap="round" stroke-width="2.0235" fill="#a4a4a4"/><path d="M257.5 419.49c13.575.0813 18.453-9.7674 23.938-18.812l-.75-13.938 4.375.5625.25 12.5.6875 1.875-11.062 14.375-6.4375 3.8125-7 1-4-1.375z" fill="gray"/><path d="M262.61 380.88c-.91165-.74629-2.2441-.61341-2.9904.29825l-8.9473 10.93c-5.6247 6.8172-6.0815 13.602-1.4827 20.675l12.847-15.693c.37315-.45583.89285-.71083 1.4338-.76479.54091-.054 1.1008.0934 1.5566.46654l5.1989 4.2559c.45583.37315.71084.89286.7648 1.4338.054.54091-.0934 1.1008-.46655 1.5566l-12.768 15.597c7.2047 2.6499 14.419.67272 19.467-5.7916l8.9473-10.93c.7463-.91165.6134-2.2441-.29825-2.9904l-1.0206-11.013-11.631-9.5214-10.61 1.4913z" stroke-linejoin="round" stroke="#484848" stroke-linecap="round" stroke-width="2.0235" fill="none"/><path d="M249.5 408.86c-5.7215-8.1277 5.3182-18.737 11.625-25.938l12.312-1.8125c.11711 1.9974-.13962 2.0338 1.1376 3.534-1.0173-.0122-9.5502 1.1721-10.212 1.4377-7.6073 3.0531-17.205 14.258-14.863 22.778z" opacity=".63" fill="#fff"/><path d="M284.96 369.65c0 6.8342-5.7776 12.374-12.905 12.374-7.1271 0-12.905-5.5402-12.905-12.374 0-6.8342 5.7776-12.374 12.905-12.374 7.1271 0 12.905 5.5402 12.905 12.374z" transform="matrix(.86793 -.19882 .20416 .8912 -26.866 104.27)" stroke-linejoin="round" stroke="#484848" stroke-linecap="round" stroke-width="2.2166" fill="#a4a4a4"/><path d="M275.21 381c2.7596-5.6381 7.8129-8.6782 14.558-9.8017-7.8408-2.0096-13.971-.99884-14.558 9.8017zM305.65 332.16c.80536-12.314 8.9204-17.249 18.797-18.651-9.9954-3.7482-23.708 5.5699-18.797 18.651z" opacity=".62981" fill="#fff"/></g><g transform="translate(-142.7 -240.72) scale(1.4034)"><rect ry="2.2311" transform="rotate(30.6234)" height="23.757" width="14.475" y="149.06" x="431.12" stroke-linejoin="round" stroke="#484848" stroke-linecap="round" stroke-width="2.312" fill="#a4a4a4"/><path d="M304.15 349.26l-.48141 1.2224-9.9608 23.078 2.0911 1.386 13.432-23.71-3.9499-1.5307-1.1307-.44565z" opacity=".63" fill="#6b6b6b"/><path d="M279.17 375.6l.67137-1.1292 12.166-20.463 2.352-.74264-10.515 25.14-3.6293-2.1846-1.0449-.62083z" opacity=".63" fill="#fff"/><rect transform="rotate(30.6234)" ry="2.2311" height="23.757" width="14.475" y="149.06" x="431.12" stroke-linejoin="round" stroke="#484848" stroke-linecap="round" stroke-width="2.312" fill="none"/><rect ry="2.1266" transform="rotate(30.6234)" height="25.503" width="18.77" y="130.95" x="429.05" stroke-linejoin="round" stroke="#484848" stroke-linecap="round" stroke-width="2" fill="#a4a4a4"/><path d="M290.84 352.88l.67137-1.1292 12.166-20.463 2.352-.74264-10.515 25.14-3.6293-2.1846-1.0449-.62083z" opacity=".63" fill="#fff"/><path d="M313.52 336.7l-.48141 1.2224-9.9608 23.078 2.0911 1.386 13.432-23.71-3.9499-1.5307-1.1307-.44565z" opacity=".63" fill="#6b6b6b"/><rect transform="rotate(30.6234)" ry="2.1266" height="25.503" width="18.77" y="130.95" x="429.05" stroke-linejoin="round" stroke="#484848" stroke-linecap="round" stroke-width="2" fill="none"/><path d="M315.5 337.99c0 9.8721-6.8277 17.875-15.25 17.875S285 347.8621 285 337.99s6.8277-17.875 15.25-17.875 15.25 8.0029 15.25 17.875z" transform="matrix(1.0954 0 0 .93453 -9.6756 11.286)" stroke-linejoin="round" stroke="#484848" stroke-linecap="round" stroke-width="2" fill="#a4a4a4"/><path d="M262.61 380.88c-.91165-.74629-2.2441-.61341-2.9904.29825l-8.9473 10.93c-5.6247 6.8172-6.0815 13.602-1.4827 20.675l12.847-15.693c.37315-.45583.89285-.71083 1.4338-.76479.54091-.054 1.1008.0934 1.5566.46654l5.1989 4.2559c.45583.37315.71084.89286.7648 1.4338.054.54091-.0934 1.1008-.46655 1.5566l-12.768 15.597c7.2047 2.6499 14.419.67272 19.467-5.7916l8.9473-10.93c.7463-.91165.6134-2.2441-.29825-2.9904l-1.0206-11.013-11.631-9.5214-10.61 1.4913z" stroke-linejoin="round" stroke="#484848" stroke-linecap="round" stroke-width="2.0235" fill="#a4a4a4"/><path d="M257.5 419.49c13.575.0813 18.453-9.7674 23.938-18.812l-.75-13.938 4.375.5625.25 12.5.6875 1.875-11.062 14.375-6.4375 3.8125-7 1-4-1.375z" fill="gray"/><path d="M262.61 380.88c-.91165-.74629-2.2441-.61341-2.9904.29825l-8.9473 10.93c-5.6247 6.8172-6.0815 13.602-1.4827 20.675l12.847-15.693c.37315-.45583.89285-.71083 1.4338-.76479.54091-.054 1.1008.0934 1.5566.46654l5.1989 4.2559c.45583.37315.71084.89286.7648 1.4338.054.54091-.0934 1.1008-.46655 1.5566l-12.768 15.597c7.2047 2.6499 14.419.67272 19.467-5.7916l8.9473-10.93c.7463-.91165.6134-2.2441-.29825-2.9904l-1.0206-11.013-11.631-9.5214-10.61 1.4913z" stroke-linejoin="round" stroke="#484848" stroke-linecap="round" stroke-width="2.0235" fill="none"/><path d="M249.5 408.86c-5.7215-8.1277 5.3182-18.737 11.625-25.938l12.312-1.8125c.11711 1.9974-.13962 2.0338 1.1376 3.534-1.0173-.0122-9.5502 1.1721-10.212 1.4377-7.6073 3.0531-17.205 14.258-14.863 22.778z" opacity=".63" fill="#fff"/><path d="M284.96 369.65c0 6.8342-5.7776 12.374-12.905 12.374-7.1271 0-12.905-5.5402-12.905-12.374 0-6.8342 5.7776-12.374 12.905-12.374 7.1271 0 12.905 5.5402 12.905 12.374z" transform="matrix(.86793 -.19882 .20416 .8912 -26.866 104.27)" stroke-linejoin="round" stroke="#484848" stroke-linecap="round" stroke-width="2.2166" fill="#a4a4a4"/><path d="M275.21 381c2.7596-5.6381 7.8129-8.6782 14.558-9.8017-7.8408-2.0096-13.971-.99884-14.558 9.8017zM305.65 332.16c.80536-12.314 8.9204-17.249 18.797-18.651-9.9954-3.7482-23.708 5.5699-18.797 18.651z" opacity=".62981" fill="#fff"/></g><g transform="matrix(-1.4034 0 0 1.4034 890.51 -241.21)"><rect ry="6.364" height="12.728" width="36.77" y="435.84" x="325.98" stroke-linejoin="round" stroke="#484848" stroke-linecap="round" stroke-width="2" fill="#a4a4a4"/><rect ry="6.364" height="12.728" width="36.77" y="423.84" x="325.98" stroke-linejoin="round" stroke="#484848" stroke-linecap="round" stroke-width="2" fill="#a4a4a4"/><rect ry="6.364" height="12.728" width="36.77" y="411.84" x="325.98" stroke-linejoin="round" stroke="#484848" stroke-linecap="round" stroke-width="2" fill="#a4a4a4"/><rect ry="6.364" height="12.728" width="36.77" y="399.47" x="325.62" stroke-linejoin="round" stroke="#484848" stroke-linecap="round" stroke-width="2" fill="#a4a4a4"/><path d="M351.26 399c2.3103 4.0104 4.2323 8.063 0 12.728 2.6584 3.69 5.3002 7.3827-.17677 12.374 5.1162 4.7811 3.1122 8.3754.35355 11.844 4.5417 7.6568.51212 8.759 0 12.551l10.607.17678-.88388-2.6516 2.1213-3.182-1.0607-4.5962-3.3588-2.6516 3.5355-2.6516.7071-3.8891-3.7123-4.9497 2.4749-2.2981.88388-4.4194-4.2426-5.8336 3.182-2.4749 1.2374-3.7123-2.2981-4.4194-2.2981-1.9445-6.1872.53033-.88389-.53033z" fill="gray"/><path d="M336.97 399.12c-2.3103 4.0104-4.2323 8.063 0 12.728-2.6584 3.69-5.3002 7.3827.17677 12.374-5.1162 4.7811-3.1122 8.3754-.35355 11.844-4.5417 7.6568-.51212 8.759 0 12.551l-10.607.17678.88388-2.6516-2.1213-3.182 1.0607-4.5962 3.3588-2.6516-3.5355-2.6516-.7071-3.8891 3.7123-4.9497-2.4749-2.2981-.88388-4.4194 4.2426-5.8336-3.182-2.4749-1.2374-3.7123 2.2981-4.4194 2.2981-1.9445 6.1872.53033.88389-.53033z" opacity=".63" fill="#fff"/><rect ry="6.0515" height="12.103" width="36.77" y="436.47" x="325.98" stroke-linejoin="round" stroke="#484848" stroke-linecap="round" stroke-width="2" fill="none"/><rect ry="5.989" height="11.978" width="36.77" y="424.59" x="325.98" stroke-linejoin="round" stroke="#484848" stroke-linecap="round" stroke-width="2" fill="none"/><rect ry="6.114" height="12.228" width="36.77" y="412.34" x="325.98" stroke-linejoin="round" stroke="#484848" stroke-linecap="round" stroke-width="2" fill="none"/><rect ry="6.364" height="12.728" width="36.77" y="399.47" x="325.62" stroke-linejoin="round" stroke="#484848" stroke-linecap="round" stroke-width="2" fill="none"/><path d="M363.1 466.7c-3.851.31482-61.685 1.0126-62.933-.35355 0-13.571 14.697-24.572 32.826-24.572 10.308 0 23.003 1.7891 29.021 4.8779 1.0072 1.8489 1.0852 14.193 1.0852 20.048z" stroke-linejoin="round" stroke="#484848" stroke-linecap="round" stroke-width="2" fill="#a4a4a4"/><path d="M300.34 463.87c31.846-1.1245 62.489 3.7269 56.038-19.092l6.1872 2.1213.53033 20.153-62.579-.17677-.17678-3.0052z" fill="gray"/><path d="M363.1 466.7c-3.851.31482-61.685 1.0126-62.933-.35355 0-13.571 14.697-24.572 32.826-24.572 10.308 0 23.003 1.7891 29.021 4.8779 1.0072 1.8489 1.0852 14.193 1.0852 20.048z" stroke-linejoin="round" stroke="#484848" stroke-linecap="round" stroke-width="2" fill="none"/><path d="M306.28 456.85c7.0815-6.0129 14.236-10.688 31.485-12.141-12.861-2.1672-25.95 1.3939-31.485 12.141z" opacity=".62981" fill="#fff"/></g><path stroke-linejoin="round" stroke="#484848" stroke-linecap="round" stroke-width="2.8068" fill="#a4a4a4" d="M455.8 113.75h18.075v39.695H455.8z"/><rect ry="0" height="9.1222" width="21.928" y="115.16" x="450.62" fill="#e3e3e3"/><rect ry="0" height="9.1222" width="21.928" y="142.92" x="450.55" opacity=".35"/><rect ry="0" height="19.288" width="51.2" y="175.97" x="348.47" stroke-linejoin="round" stroke="#484848" stroke-linecap="round" stroke-width="2.8068" fill="#a4a4a4"/><rect ry="0" height="19.145" width="59.829" y="195.33" x="344.33" stroke-linejoin="round" stroke="#484848" stroke-linecap="round" stroke-width="2.8068" fill="#a4a4a4"/><rect ry="0" height="115.1" width="129.86" y="204.38" x="307.52" stroke-linejoin="round" stroke="#484848" stroke-linecap="round" stroke-width="2.8068" fill="#a4a4a4"/><path stroke-linejoin="round" stroke="#484848" stroke-linecap="round" stroke-width="2.8068" fill="#a4a4a4" d="M270.55 113.75h18.075v39.695H270.55z"/><rect ry="0" height="9.1222" width="21.928" y="115.03" x="271.66" fill="#e3e3e3"/><rect ry="0" height="9.1222" width="21.928" y="143.1" x="272.01" opacity=".35"/><path stroke-linejoin="round" stroke="#484848" stroke-linecap="round" stroke-width="2.8068" fill="#a4a4a4" d="M287.26 88.992h169.31v87.084H287.26z"/><path d="M432.52 90.359h22.683v92.503H432.52c6.5532-30.834 10.453-61.669 0-92.503z" opacity=".32846"/><path d="M279.81 139.31h23.16l21.683 22.997h92.639l24.636-22.997h23.16v47.409h-185.28V139.31z" stroke-linejoin="round" stroke="#484848" stroke-linecap="round" stroke-width="2.8068" fill="#a4a4a4"/><path d="M353.55 256.11c0 6.4158-4.8618 11.617-10.859 11.617-5.9973 0-10.859-5.201-10.859-11.617 0-6.4158 4.8618-11.617 10.859-11.617 5.9973 0 10.859 5.201 10.859 11.617z" transform="matrix(1.8179 0 0 1.6993 -281.13 -316.22)" stroke="#484848" fill="#fff"/><path d="M353.55 256.11c0 6.4158-4.8618 11.617-10.859 11.617-5.9973 0-10.859-5.201-10.859-11.617 0-6.4158 4.8618-11.617 10.859-11.617 5.9973 0 10.859 5.201 10.859 11.617z" transform="matrix(1.8179 0 0 1.6993 -221.94 -317.29)" stroke="#484848" fill="#fff"/><path d="M348.578118 124.005098c0 6.8660753-5.56596193 12.43203912-12.43194096 12.43203912s-12.43194096-5.56596382-12.43194096-12.43203912 5.56596193-12.43203912 12.43194096-12.43203912S348.578118 117.1390227 348.578118 124.005098zM407.768118 123.295098c0 6.8660753-5.56596193 12.43203912-12.43194096 12.43203912s-12.43194096-5.56596382-12.43194096-12.43203912 5.56596193-12.43203912 12.43194096-12.43203912S407.768118 116.4290227 407.768118 123.295098z"/><path d="M290.04 136.08l1.4177-42.884 74.073-1.0632-67.694 6.3795-7.7972 37.568z" fill="#e5e5e5"/><path d="M442.44 140.69l21.265-.0885v44.657h-34.024c2.9486-9.2476 4.7217-19.083-.17564-32.254l12.935-12.314v-.00004z" opacity=".32846"/><path d="M282.63 150.21l.13445 33.993 61.936.0556-56.331-5.333-5.7394-28.716.00004-.00003z" fill="#e5e5e5"/><path d="M365.89 45.844h6.4504l8.9313 43.168h-24.809l9.4275-43.168z" stroke="#484848" stroke-width="2.8068" fill="#a4a4a4"/><path d="M385.242654 34.175164c0 9.18006042-6.99763308 16.6218696-15.6296658 16.6218696s-15.6296658-7.44194952-15.6296658-16.6218696c0-9.18006042 6.99763308-16.6218696 15.6296658-16.6218696s15.6296658 7.44194952 15.6296658 16.6218696z" stroke="#00054d" stroke-width="2.8068" fill="#604aff"/><path d="M358.2 27.64c7.074-4.2697 14.728-3.8463 22.81.03944-6.9816-8.2679-14.319-11.811-22.81-.03944z" opacity=".62981" fill="#fff"/><path d="M355.87 38.809c10.233 6.9833 19.558 7.8809 27.454-.78942-2.0083 11.642-20.576 18.209-27.454.78942z" opacity=".35"/><rect ry="3.3939" height="6.9762" width="57.149" y="288.73" x="343.78" stroke-linejoin="round" stroke="#484848" stroke-linecap="round" stroke-width="1.7951" fill="#484848"/><rect ry="3.3939" height="6.9762" width="57.149" y="302.06" x="344.48" stroke-linejoin="round" stroke="#484848" stroke-linecap="round" stroke-width="1.7951" fill="#484848"/><path d="M342.5 330.99c0 3.3828-3.0221 6.125-6.75 6.125s-6.75-2.7422-6.75-6.125c0-3.3827 3.0221-6.125 6.75-6.125s6.75 2.7423 6.75 6.125z" transform="matrix(1.3389 0 0 1.4755 -124.26 -189.22)" stroke-linejoin="round" stroke="#484848" stroke-linecap="round" stroke-width="2" fill="red"/><path d="M342.5 330.99c0 3.3828-3.0221 6.125-6.75 6.125s-6.75-2.7422-6.75-6.125c0-3.3827 3.0221-6.125 6.75-6.125s6.75 2.7423 6.75 6.125z" transform="matrix(1.3389 0 0 1.4755 -28.829 -189.22)" stroke-linejoin="round" stroke="#484848" stroke-linecap="round" stroke-width="2" fill="red"/><rect ry="3.3939" height="70.171" width="114.73" y="212.74" x="314.82" stroke-linejoin="round" stroke="#484848" stroke-linecap="round" stroke-width="2.8068" fill="#dbfffc"/><path d="M315.52 253.44h13.332l9.8239-30.174 5.9645 30.524 7.368-13.332 11.227 29.823 6.6662-19.297 15.438-.35086 6.3154-23.156 6.3154 37.542 6.3154-24.56 3.5086 12.631h20.35" stroke-linejoin="round" stroke="#00a799" stroke-linecap="round" stroke-width="2.8068" fill="none"/><path d="M318.22 279.67l.0257-57.895c-.12743-3.8256 2.9275-5.799 5.9573-5.9279l98.442-.2484-94.573 5.7247c-3.3663.42555-4.7809 2.2452-4.8754 5.0078l-5.1521 43.339.00007.00005.17542 9.9994z" opacity=".95" fill="#fff"/><rect ry="3.3939" height="70.171" width="114.73" y="212.74" x="314.82" stroke-linejoin="round" stroke="#484848" stroke-linecap="round" stroke-width="2.8068" fill="none"/><path d="M318.39 296.71c4.2657-2.3168 8.881-2.087 13.754.0213-4.2099-4.4863-8.6344-6.4088-13.754-.0213zM413.9 296.65c4.2657-2.3168 8.881-2.087 13.754.0213-4.2099-4.4863-8.6344-6.4088-13.754-.0213z" opacity=".62981" fill="#fff"/><g transform="translate(-142.7 -240.72) scale(1.4034)"><rect ry="6.364" height="12.728" width="36.77" y="435.84" x="325.98" stroke-linejoin="round" stroke="#484848" stroke-linecap="round" stroke-width="2" fill="#a4a4a4"/><rect ry="6.364" height="12.728" width="36.77" y="423.84" x="325.98" stroke-linejoin="round" stroke="#484848" stroke-linecap="round" stroke-width="2" fill="#a4a4a4"/><rect ry="6.364" height="12.728" width="36.77" y="411.84" x="325.98" stroke-linejoin="round" stroke="#484848" stroke-linecap="round" stroke-width="2" fill="#a4a4a4"/><rect ry="6.364" height="12.728" width="36.77" y="399.47" x="325.62" stroke-linejoin="round" stroke="#484848" stroke-linecap="round" stroke-width="2" fill="#a4a4a4"/><path d="M351.26 399c2.3103 4.0104 4.2323 8.063 0 12.728 2.6584 3.69 5.3002 7.3827-.17677 12.374 5.1162 4.7811 3.1122 8.3754.35355 11.844 4.5417 7.6568.51212 8.759 0 12.551l10.607.17678-.88388-2.6516 2.1213-3.182-1.0607-4.5962-3.3588-2.6516 3.5355-2.6516.7071-3.8891-3.7123-4.9497 2.4749-2.2981.88388-4.4194-4.2426-5.8336 3.182-2.4749 1.2374-3.7123-2.2981-4.4194-2.2981-1.9445-6.1872.53033-.88389-.53033z" fill="gray"/><path d="M336.97 399.12c-2.3103 4.0104-4.2323 8.063 0 12.728-2.6584 3.69-5.3002 7.3827.17677 12.374-5.1162 4.7811-3.1122 8.3754-.35355 11.844-4.5417 7.6568-.51212 8.759 0 12.551l-10.607.17678.88388-2.6516-2.1213-3.182 1.0607-4.5962 3.3588-2.6516-3.5355-2.6516-.7071-3.8891 3.7123-4.9497-2.4749-2.2981-.88388-4.4194 4.2426-5.8336-3.182-2.4749-1.2374-3.7123 2.2981-4.4194 2.2981-1.9445 6.1872.53033.88389-.53033z" opacity=".63" fill="#fff"/><rect ry="6.0515" height="12.103" width="36.77" y="436.47" x="325.98" stroke-linejoin="round" stroke="#484848" stroke-linecap="round" stroke-width="2" fill="none"/><rect ry="5.989" height="11.978" width="36.77" y="424.59" x="325.98" stroke-linejoin="round" stroke="#484848" stroke-linecap="round" stroke-width="2" fill="none"/><rect ry="6.114" height="12.228" width="36.77" y="412.34" x="325.98" stroke-linejoin="round" stroke="#484848" stroke-linecap="round" stroke-width="2" fill="none"/><rect ry="6.364" height="12.728" width="36.77" y="399.47" x="325.62" stroke-linejoin="round" stroke="#484848" stroke-linecap="round" stroke-width="2" fill="none"/><path d="M363.1 466.7c-3.851.31482-61.685 1.0126-62.933-.35355 0-13.571 14.697-24.572 32.826-24.572 10.308 0 23.003 1.7891 29.021 4.8779 1.0072 1.8489 1.0852 14.193 1.0852 20.048z" stroke-linejoin="round" stroke="#484848" stroke-linecap="round" stroke-width="2" fill="#a4a4a4"/><path d="M300.34 463.87c31.846-1.1245 62.489 3.7269 56.038-19.092l6.1872 2.1213.53033 20.153-62.579-.17677-.17678-3.0052z" fill="gray"/><path d="M363.1 466.7c-3.851.31482-61.685 1.0126-62.933-.35355 0-13.571 14.697-24.572 32.826-24.572 10.308 0 23.003 1.7891 29.021 4.8779 1.0072 1.8489 1.0852 14.193 1.0852 20.048z" stroke-linejoin="round" stroke="#484848" stroke-linecap="round" stroke-width="2" fill="none"/><path d="M306.28 456.85c7.0815-6.0129 14.236-10.688 31.485-12.141-12.861-2.1672-25.95 1.3939-31.485 12.141z" opacity=".62981" fill="#fff"/></g></g></svg>